<?xml version="1.0" encoding="utf-8"?>
<!-- preserveAspectRatio="none"  は縦横比変動可能-->
<svg preserveAspectRatio="none" viewBox="-11.472 154.875 435.947 265.774" xmlns="http://www.w3.org/2000/svg">
    <path
            style="
                fill: rgba(216, 216, 216, 0);
                stroke-width: 3px;
                stroke: rgb(0, 0, 0);
                transform-origin: 206.201px 295.469px;
            "
            d="M 3.524 395.606 L 68.534 322.477 L 29.338 315.829 L 71.402 295.885 L 44.633 283.42 L 70.446 274.279 L 40.809 227.741 L 87.654 255.997 L 88.611 213.615 L 106.775 238.545 L 111.555 208.629 L 143.104 241.87 L 169.872 206.136 L 197.297 224.343 L 234.882 195.332 L 256.87 230.235 L 290.331 201.981 L 312.32 244.363 L 378.286 204.474 L 359.165 255.166 L 408.877 263.476 L 377.815 290.454 L 406.253 345.876 L 358.208 339.541 L 367.543 384.14 L 327.034 349.976 C 327.034 349.976 282.683 370.676 282.683 368.183 C 282.683 365.69 268.343 337.436 268.343 337.436 L 240.318 376.143 L 209.069 344.121 L 178.477 376.493 L 158.4 361.534 L 139.28 339.099 L 123.028 366.52 L 98.171 339.929 L 3.524 395.606 Z"
        />
        <path
            style="fill: rgba(216, 216, 216, 0); stroke-width: 3px; stroke: rgb(0, 0, 0)"
            d="M 70.639 372.476 L 91.989 355.011 L 107.059 368.11"
            transform="matrix(1, 0, 0, 1, 1.4210854715202004e-14, 2.842170943040401e-14)"
        />
        <path
            style="fill: rgba(216, 216, 216, 0); stroke-width: 3px; stroke: rgb(0, 0, 0)"
            d="M 61.848 224.016 L 21.662 212.008 L 31.708 243.665"
            transform="matrix(1, 0, 0, 1, 1.4210854715202004e-14, 2.842170943040401e-14)"
        />
        <path
            style="fill: rgba(216, 216, 216, 0); stroke-width: 3px; stroke: rgb(0, 0, 0)"
            d="M 353.202 198.909 L 399.668 186.901 L 382.086 220.741"
            transform="matrix(1, 0, 0, 1, 1.4210854715202004e-14, 2.842170943040401e-14)"
        />
    </svg>
