<?xml version="1.0" encoding="UTF-8" standalone="no"?>
<!-- preserveAspectRatio="none"  は縦横比変動可能-->

<svg
   preserveAspectRatio="none"
   viewBox="-11.472 154.875 435.947 265.774"
   version="1.1"
   id="svg4"
   sodipodi:docname="speech-bubble-angry_.svg"
   inkscape:version="1.4 (86a8ad7, 2024-10-11)"
   xmlns:inkscape="http://www.inkscape.org/namespaces/inkscape"
   xmlns:sodipodi="http://sodipodi.sourceforge.net/DTD/sodipodi-0.dtd"
   xmlns="http://www.w3.org/2000/svg"
   xmlns:svg="http://www.w3.org/2000/svg">
  <defs
     id="defs4" />
  <sodipodi:namedview
     id="namedview4"
     pagecolor="#ffffff"
     bordercolor="#000000"
     borderopacity="0.25"
     inkscape:showpageshadow="2"
     inkscape:pageopacity="0.0"
     inkscape:pagecheckerboard="0"
     inkscape:deskcolor="#d1d1d1"
     inkscape:zoom="3.0364145"
     inkscape:cx="217.5263"
     inkscape:cy="132.887"
     inkscape:window-width="1920"
     inkscape:window-height="1009"
     inkscape:window-x="1912"
     inkscape:window-y="-8"
     inkscape:window-maximized="1"
     inkscape:current-layer="svg4" />
  <path
     style="stroke:#000000;stroke-width:3px;fill:#000000;fill-opacity:0"
     d="M 3.524,395.606 39.881786,327.74637 11.883203,312.53564 40.773771,296.87301 2.478018,278.15063 43.111129,261.43491 24.012875,210.2862 l 38.282269,8.82519 1.945007,-41.39399 34.301454,39.09144 12.025385,-43.7481 23.97428,29.28896 30.06136,-36.722 33.68238,38.95515 33.30363,-32.63369 30.55073,27.98695 29.83831,-20.34994 28.90505,35.79528 72.88205,-34.61963 -18.13299,49.37466 33.24521,33.33952 -31.062,26.978 28.438,55.422 -48.045,-6.335 12.29902,54.80841 -45.44903,-30.21197 c 0,0 -39.41097,23.99336 -39.41097,21.50036 0,-2.493 -27.84277,-10.65752 -27.84277,-10.65752 l -22.75562,16.97084 -31.57834,-19.17791 -32.89735,22.16259 -21.72368,-22.53372 -12.20395,-3.33352 -18.22801,24.45698 -31.773053,-34.8244 z"
     id="path1"
     sodipodi:nodetypes="ccccccccccccccccccccccccccsccccccccc" />
  <path
     style="fill:#000000;fill-opacity:0;stroke:#000000;stroke-width:3px"
     d="M 51.208188,388.86794 81.450254,375.08008 97.8376,392.39262"
     id="path2"
     sodipodi:nodetypes="ccc" />
  <path
     style="stroke:#000000;stroke-width:3px;fill:#000000;fill-opacity:0"
     d="M 43.734531,196.35179 9.1472398,193.5652 10.959845,230.8209"
     id="path3"
     sodipodi:nodetypes="ccc" />
  <path
     style="fill:#000000;fill-opacity:0;stroke:#000000;stroke-width:2.51057px"
     d="m 371.74137,178.43581 37.32074,-9.50528 -6.22874,28.30493"
     id="path4"
     sodipodi:nodetypes="ccc" />
</svg>
