<?xml version="1.0" encoding="UTF-8" standalone="no"?>
<svg
   width="800"
   height="346.8"
   enable-background="new 0 0 800 346.8"
   version="1.1"
   xml:space="preserve"
   id="svg1"
   sodipodi:docname="speech-bubble-sad_____.svg"
   inkscape:version="1.4 (86a8ad7, 2024-10-11)"
   xmlns:inkscape="http://www.inkscape.org/namespaces/inkscape"
   xmlns:sodipodi="http://sodipodi.sourceforge.net/DTD/sodipodi-0.dtd"
   xmlns="http://www.w3.org/2000/svg"
   xmlns:svg="http://www.w3.org/2000/svg"><defs
   id="defs1" /><sodipodi:namedview
   id="namedview1"
   pagecolor="#ffffff"
   bordercolor="#000000"
   borderopacity="0.25"
   inkscape:showpageshadow="2"
   inkscape:pageopacity="0.0"
   inkscape:pagecheckerboard="0"
   inkscape:deskcolor="#d1d1d1"
   inkscape:zoom="1.5697771"
   inkscape:cx="431.58995"
   inkscape:cy="175.50263"
   inkscape:window-width="1920"
   inkscape:window-height="1009"
   inkscape:window-x="1912"
   inkscape:window-y="-8"
   inkscape:window-maximized="1"
   inkscape:current-layer="svg_1" />
 <style
   type="text/css"
   id="style1">.stblack{fill:#000000;}
	.st0{fill:#FFFFFF;}</style>
 <g
   class="layer"
   id="g1">
  <title
   id="title1">Layer 1</title>
  <g
   id="svg_1">
   
   
  <path
   style="fill:#000000;fill-opacity:0;stroke:#000000;stroke-width:8.2;paint-order:stroke markers fill"
   d="M 68.799579,269.46501 C 71.365412,237.98035 37.126005,235.09077 34.399789,228.05786 27.050784,209.09939 72.723555,194.87304 73.258811,174.54708 73.727992,156.73023 50.57188,142.43754 53.510783,124.85849 57.43394,101.39212 55.033452,70.842514 75.806941,59.244082 91.199916,50.649744 120.44212,53.933445 136.96212,47.777485 c 17.33741,-6.460553 49.0618,-35.121088 67.52552,-36.310889 20.95716,-1.350479 63.09695,29.955691 84.08837,30.577592 28.89269,0.855987 48.17592,-32.6151178 77.08101,-32.4886909 29.63254,0.1296086 87.06987,35.0799809 112.11783,35.0368229 31.27034,-0.05388 74.2336,-41.1466062 127.40662,-28.666491 27.29663,6.406727 59.50358,26.305178 90.45871,24.844292 20.39772,-0.962644 27.5649,-5.089004 46.50343,2.548132 11.72547,4.728405 12.30827,22.088118 18.47396,33.125725 9.96773,17.843889 5.44011,40.497562 9.5555,60.518142 5.11585,24.88765 -13.71,49.20295 -23.20745,73.93117 -9.49744,24.72822 26.00736,60.06188 12.37788,81.50492 -14.76839,23.23489 -41.58108,30.26232 -68.79958,34.39979 -28.10592,4.27237 -71.65756,-29.19072 -100.01421,-31.21463 -25.7542,-1.83817 -64.82316,24.10057 -90.4587,21.0221 -41.34089,-4.96448 -46.32054,-25.56657 -87.91057,-23.57023 -31.79027,1.52596 -40.94724,14.08967 -72.62178,17.1999 -29.5746,2.90403 -56.92066,-21.26461 -86.6365,-21.02209 -21.9397,0.17905 -41.84229,18.42767 -63.70332,16.56286 -16.94987,-1.44587 -56.88539,-16.74398 -73.89584,-16.56287 -16.818446,0.17907 -89.184641,45.86639 -89.184641,45.86639 0,0 40.300029,-36.39545 42.68122,-65.61442 z"
   id="path1"
   sodipodi:nodetypes="ssssssssssssssssssssssssscs" /></g>
 </g>
</svg>
