<?xml version="1.0" encoding="UTF-8" standalone="no"?>
<svg
   width="800"
   height="346.8"
   enable-background="new 0 0 800 346.8"
   version="1.1"
   xml:space="preserve"
   id="svg1"
   sodipodi:docname="speech-bubble-sad.svg"
   inkscape:version="1.4 (86a8ad7, 2024-10-11)"
   xmlns:inkscape="http://www.inkscape.org/namespaces/inkscape"
   xmlns:sodipodi="http://sodipodi.sourceforge.net/DTD/sodipodi-0.dtd"
   xmlns="http://www.w3.org/2000/svg"
   xmlns:svg="http://www.w3.org/2000/svg"><defs
   id="defs1" /><sodipodi:namedview
   id="namedview1"
   pagecolor="#ffffff"
   bordercolor="#000000"
   borderopacity="0.25"
   inkscape:showpageshadow="2"
   inkscape:pageopacity="0.0"
   inkscape:pagecheckerboard="0"
   inkscape:deskcolor="#d1d1d1"
   inkscape:zoom="0.78488853"
   inkscape:cx="54.147817"
   inkscape:cy="349.73119"
   inkscape:window-width="1920"
   inkscape:window-height="1009"
   inkscape:window-x="1912"
   inkscape:window-y="-8"
   inkscape:window-maximized="1"
   inkscape:current-layer="svg1" />
 <style
   type="text/css"
   id="style1">.stblack{fill:#000000;}
	.st0{fill:#FFFFFF;}</style>
 <g
   class="layer"
   id="g1">
  <title
   id="title1">Layer 1</title>
  <g
   id="svg_1">
   <path
   class="stblack"
   d="m 348.33,338.1 c 10.38,0 16.84,-6.2 24.19,-13.4 2.42,-2.3 4.84,-4.7 7.76,-7.2 3.83,-3.4 6.15,-3.4 6.96,-3.4 4.33,0 9.68,4.5 15.42,9.3 3.23,2.7 6.55,5.5 10.28,8 5.24,3.4 10.38,5.1 15.83,5.1 9.98,0 18.75,-5.6 29.94,-12.7 2.32,-1.5 4.74,-3 7.26,-4.6 4.94,-3.1 8.97,-4.6 11.69,-4.6 3.53,0 6.86,2.7 12.9,8 1.92,1.7 4.13,3.6 6.55,5.5 6.86,5.5 14.42,8.3 22.38,8.3 11.79,0 24.19,-6.4 35.59,-18.5 4.23,-4.5 6.45,-4.5 7.16,-4.5 3.02,0 7.46,2.8 12.6,6.1 4.84,3.1 10.38,6.6 17.34,9.6 4.84,2.1 9.17,3.1 13.41,3.1 14.42,0 21.27,-11.4 27.32,-21.5 1.81,-3 3.63,-6 5.65,-8.7 1.31,-1.8 2.02,-1.8 2.72,-1.8 2.32,0 6.05,1.5 10.08,3.1 6.86,2.7 15.32,6 25.61,6 2.32,0 4.74,-0.2 7.06,-0.5 17.14,-2.6 20.97,-13.9 23.49,-21.5 2.32,-6.8 3.13,-8.5 8.97,-8.7 8.57,-0.4 14.62,-3.2 18.04,-8.5 6.35,-9.7 1.01,-23 -3.63,-34.7 -0.71,-1.7 -1.31,-3.3 -1.92,-4.9 -0.1,-0.4 -0.2,-0.7 -0.3,-0.9 1.51,-0.6 4.03,-1.3 6.05,-1.8 6.75,-1.9 16.03,-4.4 25.71,-11 8.67,-5.8 13.41,-14.5 13.81,-25 0.6,-16.9 -9.88,-33.3 -17.14,-39.1 -5.65,-4.4 -4.44,-16.8 0.5,-23.8 6.86,-9.8 0.91,-19.6 -3.93,-27.5 -2.52,-4.2 -5.24,-8.5 -6.05,-12.5 -1.01,-4.9 -1.41,-10 -1.71,-14.9 -0.6,-7.9 -1.11,-15.4 -4.44,-21.6 C 737.45,44.9 729.79,41 718.8,41 c -2.22,0 -4.64,0.2 -7.26,0.5 -2.52,0.3 -4.74,0.4 -6.65,0.4 -7.76,0 -9.07,-1.9 -12.1,-6.1 -3.43,-4.7 -8.17,-11.2 -20.57,-13.9 -8.17,-1.8 -14.21,-2.6 -18.95,-2.6 -9.58,0 -14.21,3.4 -19.15,7 -1.71,1.3 -3.63,2.6 -5.95,4 -5.24,3.2 -9.07,4.7 -11.69,4.7 -3.02,0 -6.15,-2.7 -12.2,-8.3 -2.52,-2.3 -5.34,-4.9 -8.67,-7.7 -6.15,-5.2 -12.1,-7.7 -18.25,-7.7 -9.17,0 -16.03,5.8 -21.98,10.9 -2.92,2.5 -5.65,4.8 -8.47,6.4 -5.75,3.3 -9.58,5 -13.21,5 -3.43,0 -9.48,-1.4 -21.47,-13.3 C 504.57,13 495.19,9 484.91,9 c -18.25,0 -34.98,12.4 -41.33,20.2 -0.3,0.4 -0.81,1 -2.82,1 -7.16,0 -20.46,-7.6 -32.26,-14.2 -8.57,-4.9 -17.34,-7.3 -25.91,-7.3 -13.31,0 -25.61,6.2 -33.57,17 -2.22,3 -4.94,4.4 -8.67,4.4 -6.25,0 -14.92,-3.8 -24.5,-10.7 -7.66,-5.6 -18.15,-8.8 -28.73,-8.8 -13.91,0 -26.61,5.3 -34.88,14.6 -3.73,4.2 -8.67,6.1 -15.63,6.1 -9.98,0 -21.77,-4.1 -31.96,-8.2 -3.13,-1.2 -6.55,-1.9 -10.08,-1.9 -14.21,0 -49.78913,-3.814729 -57.34913,6.185271 -12.82033,11.248133 -30.32912,12.403735 -28.00912,19.803735 3.13,9.8 -22.918844,11.155016 -42.988844,20.755016 -10.18,4.8 -17.904848,6.725628 -20.214848,17.12563 -3.02,13.7 -6.534439,29.010038 0.01556,36.810038 6.86,8.2 11.815142,13.70163 9.413659,23.92383 -0.09466,7.45675 -17.86623,3.87496 -9.246233,19.49028 10.300548,12.88478 24.395455,10.6536 10.339732,27.97556 -21.543581,27.53455 11.076506,26.79127 -5.928603,32.10595 -14.501375,4.53218 -11.652976,1.82024 -19.865005,12.04981 -8.484955,12.71441 4.027768,10.76342 4.434534,14.57176 0.986597,9.23698 1.267036,4.76618 -4.082964,15.46618 -1.61,3.2 -3.070451,-0.8072 -3.980451,1.9928 C 24.588288,277.55586 20.07,279 8.17,279 l 12.5,10.3 c 0.5,0.2 13.31,5.2 24.8,5.2 17.34,0 20.97,-11.1 21.77,-15.8 1.21,-7.8 5.44,-7.8 6.75,-7.8 2.92,0 6.35,1.6 8.57,4.1 5.24,5.7 12.1,9 19.05,9 9.98,0 18.04,-6.5 21.57,-17.5 2.42,-7.6 4.03,-9.5 4.54,-10 0.5,0.1 2.42,0.5 6.65,3.5 9.68,6.8 11.09,14.5 13.41,27.2 0.2,1.3 0.5,2.6 0.71,3.9 2.22,11.5 12.1,18.9 25.3,18.9 8.17,0 16.33,-2.9 22.38,-7.9 2.42,-2 6.05,-3.1 10.18,-3.1 7.56,0 13.31,3.6 13.81,5.1 3.53,11.7 16.33,24.3 41.63,24.3 15.73,0 21.17,-7.4 25.3,-12.8 2.52,-3.4 4.03,-5.4 8.06,-6.4 0.71,-0.2 1.41,-0.3 2.02,-0.3 3.73,0 7.46,3.3 13.21,8.6 5.44,5 12.2,11.2 21.57,15.7 6.25,3.5 11.49,4.9 16.33,4.9 z"
   id="svg_2"
   style="display:inline;fill:#000000;fill-opacity:0;stroke:#000000;stroke-width:8.2;stroke-dasharray:none;stroke-opacity:1"
   sodipodi:nodetypes="sccsccsccsccscsccsccscsccccccccccccccccscsccsccsccsccscscscscscscscsccccccccscsccccscscscccccssscsccsccss" />
   <path
   class="st0"
   d="m 740.48,90.6 c 2.82,13.3 17.84,24.6 11.19,34.1 -6.65,9.5 -8.57,26.5 0.91,34 9.48,7.5 24.8,37.8 3.83,52 -20.97,14.2 -40.02,7.6 -34.28,22.7 5.75,15.1 17.14,36.9 -5.75,37.8 -22.89,0.9 -8.57,26.5 -33.37,30.2 -24.8,3.8 -40.02,-18 -50.51,-3.8 -10.48,14.2 -15.22,34 -37.2,24.6 -21.88,-9.5 -30.44,-25.5 -45.77,-9.5 -15.22,16.1 -32.36,21.7 -47.68,9.5 -15.22,-12.3 -19.96,-21.7 -40.02,-9.5 -19.96,12.3 -30.44,21.7 -44.76,12.3 -14.31,-9.5 -25.71,-27.4 -41.94,-13.2 -16.23,14.2 -19.96,24.6 -40.02,15.1 -19.96,-9.5 -26.71,-28.4 -41.94,-24.6 -15.22,3.8 -10.48,18.9 -31.45,18.9 -20.97,0 -31.45,-9.5 -34.28,-18.9 -2.82,-9.5 -24.8,-15.1 -36.19,-5.7 -11.39,9.5 -32.36,8.5 -35.28,-6.6 -2.92,-15.1 -3.83,-26.5 -17.14,-35.9 -13.31,-9.5 -18.15,-4.7 -22.88,10.4 -4.74,15.1 -19.05,15.1 -27.62,5.7 -8.57,-9.5 -25.71,-10.4 -28.63,7.6 -2.82,18 -36.19,4.7 -36.19,4.7 22.88,0 19.96,-13.2 25.71,-24.6 5.75,-11.3 17.14,-16.1 26.71,-11.3 9.58,4.7 -11.876054,-20.75913 -7.136054,-41.45913 4.74,-20.7 36.955724,-9.289 57.925724,-11.089 C 147.68967,192.15187 140.75,161.6 131.17,150.3 121.59,139 116.86,113.4 138.83,103 160.8,92.6 164.54,79.4 159.8,64.2 c -4.74,-15.1 22.88,-41.6 41.94,-34 19.05,7.6 42.84,15.1 56.25,0 C 271.4,15 297.1,15 311.42,25.4 c 14.31,10.4 33.37,18.9 43.85,4.7 10.48,-14.2 29.54,-18.9 49.5,-7.6 19.96,11.3 37.2,20.8 44.76,11.3 7.56,-9.5 36.29,-28.8 57.26,-8 20.97,20.8 30.44,17 43.85,9.5 13.31,-7.6 21.88,-25.5 40.02,-10.4 18.14,15.1 20.77,24.4 41.53,11.9 13,-7.9 11.69,-13.3 38.41,-7.5 22.48,4.9 10.48,23.4 41.94,19.6 31.35,-3.7 23.09,19 27.92,41.7 z"
   id="svg_3"
   style="fill:#ffffff;fill-opacity:0"
   sodipodi:nodetypes="cssscscccccccsccsccscccccccscssccccsssscsccccc" />
  </g>
 </g>
</svg>
