<?xml version="1.0" standalone="no"?>
<!DOCTYPE svg PUBLIC "-//W3C//DTD SVG 20010904//EN"
 "http://www.w3.org/TR/2001/REC-SVG-20010904/DTD/svg10.dtd">
<svg version="1.0" xmlns="http://www.w3.org/2000/svg"
 width="150.000000pt" height="150.000000pt" viewBox="0 0 150.000000 150.000000"
 preserveAspectRatio="xMidYMid meet">

<g transform="translate(0.000000,150.000000) scale(0.100000,-0.100000)"
fill="#000000" stroke="none">
<path d="M136 1421 c-64 -66 -76 -83 -68 -98 6 -10 42 -49 81 -86 61 -60 73
-67 91 -57 29 15 25 34 -16 80 l-36 40 146 0 c83 0 156 5 167 10 23 13 25 46
3 54 -9 3 -86 6 -172 6 l-156 0 44 45 c37 38 43 48 34 63 -21 32 -40 23 -118
-57z"/>
<path d="M1180 1480 c-9 -17 -4 -27 31 -65 l42 -45 -160 0 c-110 0 -163 -4
-171 -12 -16 -16 -15 -23 4 -42 13 -13 43 -16 171 -16 l156 0 -42 -45 c-41
-44 -45 -68 -14 -79 18 -7 173 139 173 163 0 20 -142 161 -163 161 -9 0 -21
-9 -27 -20z"/>
<path d="M649 1283 c-53 -33 -54 -36 -59 -359 l-5 -302 -73 53 c-89 66 -137
77 -203 47 -61 -27 -84 -55 -84 -103 0 -39 8 -47 275 -314 326 -324 301 -310
529 -303 121 3 142 7 191 30 77 36 131 86 171 160 l34 63 3 256 3 256 -26 31
c-34 41 -91 59 -136 43 -31 -11 -35 -10 -52 14 -11 14 -32 32 -48 40 -31 17
-96 20 -118 6 -10 -7 -20 0 -35 22 -29 42 -94 66 -136 50 l-30 -11 0 114 c0
127 -11 168 -55 202 -34 27 -107 29 -146 5z m111 -63 c19 -19 20 -33 20 -284
0 -228 2 -265 16 -277 11 -9 20 -10 32 -2 14 8 18 30 20 114 3 115 14 139 64
139 54 0 68 -28 68 -139 0 -103 10 -128 44 -115 13 5 16 21 16 76 0 60 3 72
25 93 29 30 58 32 85 5 16 -16 20 -33 20 -83 0 -74 18 -109 47 -91 11 7 20 28
24 52 3 22 11 47 18 56 19 22 67 20 91 -4 19 -19 20 -33 20 -228 0 -236 -8
-280 -65 -355 -23 -30 -55 -55 -96 -76 -61 -30 -66 -31 -201 -31 -102 0 -148
4 -176 15 -45 19 -542 511 -542 537 0 25 39 48 81 48 30 0 53 -12 116 -58 113
-84 128 -93 147 -86 14 6 16 39 16 334 0 316 1 328 21 354 25 31 61 34 89 6z"/>
</g>
</svg>
